<?xml version="1.0" encoding="UTF-8"?>
<svg width="120" height="40" viewBox="0 0 120 40" fill="none" xmlns="http://www.w3.org/2000/svg">
    <g transform="translate(20, 8)">
        <path d="M47.5 15.4c-4.1 3-10 4.6-15.1 4.6-7.1 0-13.6-2.6-18.4-7C13.7 12.8 13.4 13 13.7 13.4c4.2 5 10.5 8 17.5 8 4.8 0 10.1-1 14.1-3.1.7-.3 1.2.4.5.8" fill="#FF9900"/>
        <path d="M49.9 12.7c-.5-.7-3.3-.3-4.6-.2-.4 0-.4-.3-.1-.5 2.2-1.6 5.9-1.1 6.3-.6.4.5-.1 4.2-2.2 6-.3.3-.6.1-.5-.2.5-1.2 1.5-3.8 1.1-4.5" fill="#FF9900"/>
        <path d="M45.3 3.8v-1.4c0-.2.2-.3.3-.3h5.7c.2 0 .3.1.3.3v1.2c0 .2-.2.4-.4.8l-2.9 4.2c1.1 0 2.2.1 3.2.6.2.1.3.3.3.5v1.5c0 .2-.2.4-.4.3-1.8-.9-4.1-1-6.1 0-.2.1-.4-.1-.4-.3v-1.4c0-.2 0-.6.2-.9l3.4-4.9h-3c-.2.1-.2-.1-.2-.2" fill="#000000"/>
        <path d="M16.8 13.9h-1.7c-.2 0-.3-.1-.3-.3V2.4c0-.2.2-.3.3-.3h1.6c.2 0 .3.1.3.3v1.5h.1c.4-1.1 1.2-1.6 2.3-1.6 1.1 0 1.8.5 2.3 1.6.4-1.1 1.4-1.6 2.4-1.6 0.7 0 1.5.3 2 1 .5.8.4 1.9.4 2.9v7.4c0 .2-.2.3-.3.3h-1.7c-.2 0-.3-.1-.3-.3V6.8c0-.5 0-1.8-.1-2.3-.1-.8-.6-1.1-1.2-1.1-.5 0-1 .3-1.2.9-.2.6-.2 1.6-.2 2.4v6.9c0 .2-.2.3-.3.3h-1.7c-.2 0-.3-.1-.3-.3V6.8c0-1.4.2-3.4-1.5-3.4-.2 0-1.4.1-1.4 2.4v7.8c-.1.2-.2.3-.4.3" fill="#000000"/>
        <path d="M59.2 2.1c2.5 0 3.9 2.2 3.9 4.9 0 2.6-1.5 4.7-3.9 4.7-2.5 0-3.8-2.2-3.8-4.8-.1-2.7 1.3-4.8 3.8-4.8m0 1.8c-1.3 0-1.3 1.7-1.3 2.8 0 1.1 0 3.4 1.3 3.4 1.3 0 1.3-1.8 1.3-2.9 0-.7 0-1.6-.2-2.3-.2-.6-.6-.9-1.1-1" fill="#000000"/>
        <path d="M65.2 13.9h-1.7c-.2 0-.3-.1-.3-.3V2.4c0-.2.2-.3.3-.3h1.6c.2 0 .3.1.3.3v1.5h.1c.5-1.2 1.2-1.8 2.4-1.8 0.8 0 1.6.3 2.1 1.1.5.7.5 1.9.5 2.8v7.6c-.2.1-.3.2-.5.2h-1.7c-.2 0-.3-.1-.3-.3V6.8c0-1.4.2-3.4-1.5-3.4-.6 0-1.1.4-1.4 1-.3.8-.3 1.6-.3 2.4v6.9c0 .1-.2.2-.3.2" fill="#000000"/>
        <path d="M37.1 8c0 .7 0 1.3-.3 1.9-.4.9-1 1.5-1.7 1.5-.9 0-1.5-.7-1.5-1.8 0-2.1 1.9-2.5 3.5-2.5v.9m1.7 4.2c-.1.1-.2.1-.4.1-.2-.2-.2-.5-.2-.8-1 1-1.7 1.3-3 1.3-1.5 0-2.7-.9-2.7-2.8 0-1.5.8-2.5 1.9-3 1-.4 2.4-.5 3.5-.6V6c0-.4 0-.9-.2-1.3-.2-.3-.6-.5-1-.5-.7 0-1.3.4-1.4 1.1-.1.2-.2.3-.4.3l-1.6-.2c-.1 0-.3-.1-.2-.4C33.5 3.3 35.1 2.7 36.6 2.7c.8 0 1.8.2 2.4.8.8.7.7 1.7.7 2.8v2.5c0 .8.3 1.1.6 1.5.1.1.1.3 0 .4-.3.2-.8.7-1.1.9l-.4-.4" fill="#000000"/>
        <path d="M6.9 8c0 .7 0 1.3-.3 1.9-.4.9-1 1.5-1.7 1.5-.9 0-1.5-.7-1.5-1.8 0-2.1 1.9-2.5 3.5-2.5v.9m1.7 4.2c-.1.1-.2.1-.4.1-.2-.2-.2-.5-.2-.8-1 1-1.7 1.3-3 1.3-1.5 0-2.7-.9-2.7-2.8 0-1.5.8-2.5 1.9-3 1-.4 2.4-.5 3.5-.6V6c0-.4 0-.9-.2-1.3-.2-.3-.6-.5-1-.5-.7 0-1.3.4-1.4 1.1-.1.2-.2.3-.4.3L3.1 5.4c-.1 0-.3-.1-.2-.4C3.3 3.3 4.9 2.7 6.4 2.7c.8 0 1.8.2 2.4.8.8.7.7 1.7.7 2.8v2.5c0 .8.3 1.1.6 1.5.1.1.1.3 0 .4-.3.2-.8.7-1.1.9l-.4-.4" fill="#000000"/>
    </g>
</svg> 