<?xml version="1.0" encoding="UTF-8"?>
<svg width="120" height="40" viewBox="0 0 120 40" fill="none" xmlns="http://www.w3.org/2000/svg">
    <g transform="translate(30, 8) scale(0.6)">
        <path d="M31.5 17.2c0-7.5-5.7-13.5-13.2-13.5S5.1 9.7 5.1 17.2c0 7.4 5.7 13.5 13.2 13.5 3.9 0 7.3-1.4 9.8-3.8l-4-3.1c-1.6 1.1-3.6 1.7-5.8 1.7-4.5 0-8.3-3-9.6-7.1h19.8c.2-1 .3-2 .3-3.1z" fill="#4285F4"/>
        <path d="M8.7 18.4c-.4-1.1-.6-2.3-.6-3.5 0-1.2.2-2.4.6-3.5l-4.7-3.6C2.7 10.1 2 12.3 2 14.9s.7 4.8 2 7.1l4.7-3.6z" fill="#FBBC05"/>
        <path d="M18.3 8.3c2.5 0 4.8.9 6.5 2.6l3.5-3.5C25.7 4.9 22.2 3.7 18.3 3.7c-7.5 0-13.2 6-13.2 13.5l4.7 3.6c1.3-4.1 5.1-7.1 9.6-7.1z" fill="#EA4335"/>
        <path d="M18.3 26.1c4.5 0 8.3-3 9.6-7.1H8.1c1.3 4.1 5.1 7.1 9.6 7.1z" fill="#34A853"/>
    </g>
</svg> 